# xmcd
#
# Track frame offsets:
#	150
#	34139
#	49827
#	67789
#	73393
#	89584
#	107893
#	127913
#	139567
#	157006
#
# Disc length: 2273 seconds
#
# Revision: 0
# Processed by: cddbd v1.5.1PL0 Copyright (c) Steve Scherf et al.
# Submitted via: dBpowerAMP V4.0
#
DISCID=8d08df0a
DTITLE=I - Alphabetical
DYEAR=1900
DGENRE=R&B
TTITLE0=Alphabetical
TTITLE1=Holdin´ on together
TTITLE2=If it´s not with you
TTITLE3=Congratulations
TTITLE4=You can´t blame it on anybody
TTITLE5=Victim of the crime
TTITLE6=Love for granted
TTITLE7=I`m an actor
TTITLE8=Run run run
TTITLE9=Everything is everything
EXTD=
EXTT0=
EXTT1=
EXTT2=
EXTT3=
EXTT4=
EXTT5=
EXTT6=
EXTT7=
EXTT8=
EXTT9=
PLAYORDER=
